<svg width="90" height="169" viewBox="0 0 90 169" fill="none" xmlns="http://www.w3.org/2000/svg">
<g clip-path="url(#clip0_6_137)">
<path d="M0.681526 86.2287C39.3759 86.2287 70.7439 54.797 70.7439 16.0241C70.7439 -22.7489 39.3759 -54.1806 0.681526 -54.1806C-38.0129 -54.1806 -69.3809 -22.7489 -69.3809 16.0241C-69.3809 54.797 -38.0129 86.2287 0.681526 86.2287Z" fill="white" fill-opacity="0.4"/>
<path d="M28.5782 62.3819C62.3642 62.3819 89.7532 34.9373 89.7532 1.08267C89.7532 -32.772 62.3642 -60.2166 28.5782 -60.2166C-5.20783 -60.2166 -32.5968 -32.772 -32.5968 1.08267C-32.5968 34.9373 -5.20783 62.3819 28.5782 62.3819Z" stroke="white" stroke-miterlimit="10"/>
<path d="M-60.296 168.753C20.0379 168.753 85.1613 103.497 85.1613 23C85.1613 -57.497 20.0379 -122.753 -60.296 -122.753C-140.63 -122.753 -205.753 -57.497 -205.753 23C-205.753 103.497 -140.63 168.753 -60.296 168.753Z" stroke="white" stroke-miterlimit="10"/>
</g>
<defs>
<clipPath id="clip0_6_137">
<rect width="296" height="292" fill="white" transform="translate(-206 -123)"/>
</clipPath>
</defs>
</svg>
