<svg width="203" height="368" viewBox="0 0 203 368" fill="none" xmlns="http://www.w3.org/2000/svg">
<g clip-path="url(#clip0_6_141)">
<path d="M18.3542 267.282C77.1435 273.975 130.334 230.803 137.16 170.854C143.985 110.905 101.859 56.8814 43.0701 50.1883C-15.7192 43.4951 -68.9102 86.6673 -75.7353 146.616C-82.5604 206.565 -40.4351 260.588 18.3542 267.282Z" fill="white" fill-opacity="0.4"/>
<path d="M-8.01043 336.458C78.2179 346.275 156.228 283.013 166.231 195.158C176.233 107.303 114.439 28.1238 28.211 18.3067C-58.0174 8.48965 -136.028 71.752 -146.03 159.607C-156.032 247.462 -94.2388 326.641 -8.01043 336.458Z" stroke="white" stroke-miterlimit="10"/>
<path d="M5.72747 431.488C100.401 442.267 186.059 372.743 197.05 276.202C208.042 179.662 140.203 92.6622 45.5298 81.8836C-49.1439 71.1051 -134.802 140.629 -145.793 237.17C-156.784 333.71 -88.9462 420.71 5.72747 431.488Z" stroke="white" stroke-miterlimit="10"/>
</g>
<defs>
<clipPath id="clip0_6_141">
<rect width="333" height="332" fill="white" transform="translate(-128.154 0.231201) rotate(6.49513)"/>
</clipPath>
</defs>
</svg>
