<svg width="205" height="50" viewBox="0 0 205 50" fill="none" xmlns="http://www.w3.org/2000/svg">
<g clip-path="url(#clip0_6_129)">
<path d="M20.8582 39.2907C17.7681 39.2907 14.9589 39.2907 12.0093 39.2907C12.0093 29.4159 12.0093 19.6106 12.0093 9.52712C7.93594 9.52712 4.00308 9.52712 0 9.52712C0 7.09319 0 4.86787 0 2.50348C10.8153 2.50348 21.5605 2.50348 32.5163 2.50348C32.5163 4.72879 32.5163 6.9541 32.5163 9.38804C28.7239 9.38804 24.9315 9.38804 20.8582 9.38804C20.8582 19.4019 20.8582 29.2768 20.8582 39.2907Z" fill="white"/>
<path d="M69.5975 18.0807C68.8952 16.968 68.4036 16.064 67.912 15.2295C72.0555 10.9179 82.0983 9.80529 86.8037 13.1433C89.4724 15.0209 90.6663 17.733 90.7366 20.7928C90.877 26.4951 90.8068 32.128 90.877 37.8303C90.877 39.0125 90.4556 39.4993 89.2617 39.3602C88.5594 39.2907 87.8571 39.3602 87.0144 39.3602C86.9442 38.178 86.8739 37.2045 86.7335 35.8136C84.2754 38.3171 81.396 39.5688 78.1655 39.4993C76.199 39.4993 74.2326 39.2907 72.4066 38.7344C68.7547 37.6217 66.8585 34.4924 66.999 30.7371C67.2097 27.3992 69.3868 24.7566 73.0387 23.9221C75.0051 23.5049 77.0418 23.5049 79.0785 23.4353C81.3258 23.3658 83.5731 23.3658 85.8205 23.3658C85.9609 23.3658 86.1014 23.2962 86.2419 23.2267C87.6465 18.9847 85.048 15.1599 80.4128 14.7427C76.5502 14.5341 72.9685 15.4381 69.5975 18.0807ZM86.5228 26.9124C82.5197 26.9124 78.6571 26.7038 74.8647 26.9819C72.8983 27.121 71.4234 28.4423 71.1425 30.6676C70.8616 32.8234 71.6341 34.6314 73.6006 35.5355C77.0418 37.1349 80.5533 36.9263 83.7838 34.7705C86.6632 32.8234 87.0846 29.9722 86.5228 26.9124Z" fill="white"/>
<path d="M176.206 25.3129C176.276 17.0376 182.386 11.1266 190.814 11.1961C199.03 11.2656 205.07 17.3853 204.93 25.5911C204.86 33.7969 198.75 39.7079 190.392 39.5688C182.105 39.5688 176.206 33.5883 176.206 25.3129ZM200.786 25.3825C200.786 19.0542 196.713 14.8818 190.603 14.8122C184.633 14.8122 180.349 19.1238 180.349 25.3825C180.279 31.6412 184.633 36.0918 190.743 36.0222C196.713 36.0222 200.786 31.7802 200.786 25.3825Z" fill="white"/>
<path d="M100.498 11.6829C104.361 11.057 104.361 11.057 105.766 14.1864C108.364 20.0278 110.963 25.8692 113.561 31.7107C113.983 32.6147 114.404 33.4492 114.966 34.6314C116.581 31.0153 118.126 27.6773 119.601 24.4089C121.146 21.0014 122.691 17.5939 124.166 14.1168C125.43 11.1961 125.43 11.1961 129.222 11.6133C128.59 13.1432 127.958 14.5341 127.326 15.9249C123.112 25.2434 118.969 34.5619 114.685 43.8108C112.157 49.3046 107.03 51.2517 101.622 49.0264C98.4618 47.7051 98.3916 47.2183 100.85 44.4367C101.341 44.7844 101.833 45.1321 102.395 45.4103C105.485 47.1488 108.645 46.3839 110.612 43.4631C112.367 40.9597 112.718 38.5953 111.244 35.605C107.521 28.1641 104.291 20.5146 100.85 12.8651C100.779 12.6565 100.709 12.2392 100.498 11.6829Z" fill="white"/>
<path d="M143.69 39.2907C142.425 39.2907 141.232 39.2907 139.827 39.2907C139.757 38.4562 139.687 37.6217 139.687 36.8567C139.687 25.5911 139.687 14.395 139.687 3.12933C139.687 -0.208637 139.897 -0.41726 143.619 0.347691C143.69 13.2823 143.69 26.217 143.69 39.2907Z" fill="white"/>
<path d="M163.354 39.2907C162.09 39.2907 160.966 39.2907 159.561 39.2907C159.491 38.4562 159.421 37.6217 159.421 36.8567C159.421 25.7302 159.421 14.5341 159.421 3.4075C159.421 -0.278175 159.421 -0.278175 163.354 0.347695C163.354 13.2823 163.354 26.217 163.354 39.2907Z" fill="white"/>
<path d="M43.121 39.2212C43.121 38.3867 43.121 37.6217 43.121 36.8568C43.121 29.4159 43.121 22.0445 43.121 14.6036C43.121 11.057 43.121 11.057 46.9836 11.6134C46.9836 12.8651 46.9836 14.1168 46.9836 16.064C49.863 12.4479 53.1638 11.057 57.3776 11.2657C57.3776 12.5174 57.3776 13.6996 57.3776 14.8818C56.9562 14.9513 56.5348 15.0904 56.1837 15.0904C50.4248 15.5772 47.4752 18.637 47.3347 24.4089C47.2645 28.3032 47.3347 32.1975 47.3347 36.0918C47.3347 39.7079 47.3347 39.7079 43.121 39.2212Z" fill="white"/>
</g>
<defs>
<clipPath id="clip0_6_129">
<rect width="205" height="50" fill="white"/>
</clipPath>
</defs>
</svg>
